<svg xmlns="http://www.w3.org/2000/svg" xmlns:xlink="http://www.w3.org/1999/xlink" width="500" zoomAndPan="magnify" viewBox="0 0 375 374.999991" height="500" preserveAspectRatio="xMidYMid meet" version="1.2"><defs><clipPath id="2774055a8e"><path d="M 38.328125 38.488281 L 339.078125 38.488281 L 339.078125 77.488281 L 38.328125 77.488281 Z M 38.328125 38.488281 "/></clipPath><clipPath id="d2c6a7e972"><path d="M 38.328125 296.714844 L 173.328125 296.714844 L 173.328125 338.265625 L 38.328125 338.265625 Z M 38.328125 296.714844 "/></clipPath><clipPath id="18e18fb1ef"><path d="M 226.820312 296.9375 L 337.574219 296.9375 L 337.574219 339.238281 L 226.820312 339.238281 Z M 226.820312 296.9375 "/></clipPath><clipPath id="c7401386c7"><path d="M 315.15625 91.96875 L 338.441406 91.96875 L 338.441406 285 L 315.15625 285 Z M 315.15625 91.96875 "/></clipPath></defs><g id="ea7fdab394"><g style="fill:#7e4b26;fill-opacity:1;"><g transform="translate(11.188792, 284.265479)"><path style="stroke:none" d="M 25.875 0 L 25.875 -191.96875 L 103.46875 -191.96875 C 117.269531 -191.96875 128.976562 -189.695312 138.59375 -185.15625 C 148.21875 -180.625 155.523438 -174.09375 160.515625 -165.5625 C 165.503906 -157.03125 168 -146.59375 168 -134.25 C 168 -122.082031 165.457031 -111.6875 160.375 -103.0625 C 155.300781 -94.4375 148 -87.8125 138.46875 -83.1875 C 128.9375 -78.5625 117.269531 -76.25 103.46875 -76.25 L 49.28125 -76.25 L 49.28125 0 Z M 49.28125 -95.84375 L 100.484375 -95.84375 C 115.003906 -95.84375 125.984375 -99.066406 133.421875 -105.515625 C 140.867188 -111.960938 144.59375 -121.539062 144.59375 -134.25 C 144.59375 -146.945312 140.867188 -156.472656 133.421875 -162.828125 C 125.984375 -169.179688 115.003906 -172.359375 100.484375 -172.359375 L 49.28125 -172.359375 Z M 49.28125 -95.84375 "/></g></g><g style="fill:#7e4b26;fill-opacity:1;"><g transform="translate(169.724612, 281.236183)"><path style="stroke:none" d="M 45.640625 -103.5 C 49.566406 -109.03125 54.984375 -113.648438 61.890625 -117.359375 C 68.804688 -121.066406 76.707031 -122.921875 85.59375 -122.921875 C 95.925781 -122.921875 105.273438 -120.375 113.640625 -115.28125 C 122.015625 -110.1875 128.640625 -102.945312 133.515625 -93.5625 C 138.390625 -84.175781 140.828125 -73.296875 140.828125 -60.921875 C 140.828125 -48.546875 138.390625 -37.585938 133.515625 -28.046875 C 128.640625 -18.515625 122.015625 -11.128906 113.640625 -5.890625 C 105.273438 -0.648438 95.925781 1.96875 85.59375 1.96875 C 76.707031 1.96875 68.878906 0.148438 62.109375 -3.484375 C 55.347656 -7.128906 49.859375 -11.71875 45.640625 -17.25 L 45.640625 57.640625 L 15.0625 57.640625 L 15.0625 -120.96875 L 45.640625 -120.96875 Z M 109.609375 -60.921875 C 109.609375 -68.191406 108.113281 -74.484375 105.125 -79.796875 C 102.144531 -85.117188 98.21875 -89.160156 93.34375 -91.921875 C 88.46875 -94.691406 83.191406 -96.078125 77.515625 -96.078125 C 71.984375 -96.078125 66.773438 -94.65625 61.890625 -91.8125 C 57.015625 -88.976562 53.085938 -84.863281 50.109375 -79.46875 C 47.128906 -74.082031 45.640625 -67.753906 45.640625 -60.484375 C 45.640625 -53.203125 47.128906 -46.867188 50.109375 -41.484375 C 53.085938 -36.097656 57.015625 -31.984375 61.890625 -29.140625 C 66.773438 -26.304688 71.984375 -24.890625 77.515625 -24.890625 C 83.191406 -24.890625 88.46875 -26.34375 93.34375 -29.25 C 98.21875 -32.164062 102.144531 -36.316406 105.125 -41.703125 C 108.113281 -47.085938 109.609375 -53.492188 109.609375 -60.921875 Z M 109.609375 -60.921875 "/></g></g><g clip-rule="nonzero" clip-path="url(#2774055a8e)"><path style=" stroke:none;fill-rule:nonzero;fill:#7e4b26;fill-opacity:1;" d="M 292.808594 38.488281 L 84.597656 38.488281 C 59.046875 38.488281 38.328125 59.203125 38.328125 84.757812 L 38.328125 292.96875 C 38.328125 318.519531 59.046875 339.238281 84.597656 339.238281 L 292.808594 339.238281 C 318.359375 339.238281 339.078125 318.519531 339.078125 292.96875 L 339.078125 84.757812 C 339.078125 59.203125 318.359375 38.488281 292.808594 38.488281 Z M 315.945312 292.96875 C 315.945312 305.738281 305.566406 316.101562 292.808594 316.101562 L 84.597656 316.101562 C 71.828125 316.101562 61.460938 305.738281 61.460938 292.96875 L 61.460938 84.757812 C 61.460938 72 71.828125 61.621094 84.597656 61.621094 L 292.808594 61.621094 C 305.566406 61.621094 315.945312 72 315.945312 84.757812 Z M 315.945312 292.96875 "/></g><g clip-rule="nonzero" clip-path="url(#d2c6a7e972)"><path style=" stroke:none;fill-rule:nonzero;fill:#7e4b26;fill-opacity:1;" d="M 292.808594 37.515625 L 84.597656 37.515625 C 59.046875 37.515625 38.328125 58.234375 38.328125 83.785156 L 38.328125 291.996094 C 38.328125 317.550781 59.046875 338.265625 84.597656 338.265625 L 292.808594 338.265625 C 318.359375 338.265625 339.078125 317.550781 339.078125 291.996094 L 339.078125 83.785156 C 339.078125 58.234375 318.359375 37.515625 292.808594 37.515625 Z M 315.945312 291.996094 C 315.945312 304.769531 305.566406 315.132812 292.808594 315.132812 L 84.597656 315.132812 C 71.828125 315.132812 61.460938 304.769531 61.460938 291.996094 L 61.460938 83.785156 C 61.460938 71.027344 71.828125 60.652344 84.597656 60.652344 L 292.808594 60.652344 C 305.566406 60.652344 315.945312 71.027344 315.945312 83.785156 Z M 315.945312 291.996094 "/></g><g clip-rule="nonzero" clip-path="url(#18e18fb1ef)"><path style=" stroke:none;fill-rule:nonzero;fill:#7e4b26;fill-opacity:1;" d="M 291.304688 38.488281 L 83.09375 38.488281 C 57.539062 38.488281 36.824219 59.203125 36.824219 84.757812 L 36.824219 292.96875 C 36.824219 318.519531 57.539062 339.238281 83.09375 339.238281 L 291.304688 339.238281 C 316.855469 339.238281 337.574219 318.519531 337.574219 292.96875 L 337.574219 84.757812 C 337.574219 59.203125 316.855469 38.488281 291.304688 38.488281 Z M 314.4375 292.96875 C 314.4375 305.738281 304.0625 316.101562 291.304688 316.101562 L 83.09375 316.101562 C 70.324219 316.101562 59.957031 305.738281 59.957031 292.96875 L 59.957031 84.757812 C 59.957031 72 70.324219 61.621094 83.09375 61.621094 L 291.304688 61.621094 C 304.0625 61.621094 314.4375 72 314.4375 84.757812 Z M 314.4375 292.96875 "/></g><g clip-rule="nonzero" clip-path="url(#c7401386c7)"><path style=" stroke:none;fill-rule:nonzero;fill:#7e4b26;fill-opacity:1;" d="M 315.15625 91.96875 L 338.441406 91.96875 L 338.441406 284.972656 L 315.15625 284.972656 Z M 315.15625 91.96875 "/></g></g></svg>