<svg xmlns="http://www.w3.org/2000/svg" xmlns:xlink="http://www.w3.org/1999/xlink" width="6912" zoomAndPan="magnify" viewBox="0 0 5184 576" height="768" preserveAspectRatio="xMidYMid meet" version="1.2"><defs/><g id="5b88ab0af1"><g style="fill:#7e4b26;fill-opacity:1;"><g transform="translate(0, 525.192986)"><path style="stroke:none" d="M 491.625 -322.03125 C 491.625 -293.1875 484.523438 -266.863281 470.328125 -243.0625 C 456.140625 -219.257812 437.144531 -200.148438 413.34375 -185.734375 C 389.539062 -171.316406 363.222656 -163.878906 334.390625 -163.421875 L 157.234375 -163.421875 L 157.234375 -67.296875 C 157.234375 -48.523438 152.195312 -33.53125 142.125 -22.3125 C 132.0625 -11.101562 119.585938 -3.554688 104.703125 0.328125 C 89.828125 4.222656 74.835938 4.222656 59.734375 0.328125 C 44.628906 -3.554688 32.039062 -11.101562 21.96875 -22.3125 C 11.894531 -33.53125 6.859375 -48.523438 6.859375 -67.296875 L 6.859375 -410.609375 C 6.859375 -433.953125 14.640625 -451.457031 30.203125 -463.125 C 45.773438 -474.800781 62.710938 -480.640625 81.015625 -480.640625 L 331.640625 -480.640625 C 360.472656 -480.640625 387.019531 -473.65625 411.28125 -459.6875 C 435.539062 -445.726562 454.992188 -426.734375 469.640625 -402.703125 C 484.296875 -378.671875 491.625 -351.78125 491.625 -322.03125 Z M 332.328125 -330.265625 L 157.234375 -330.265625 L 157.234375 -314.46875 L 332.328125 -314.46875 C 338.273438 -314.46875 341.25 -317.21875 341.25 -322.71875 C 340.332031 -327.75 337.359375 -330.265625 332.328125 -330.265625 Z M 332.328125 -330.265625 "/></g></g><g style="fill:#7e4b26;fill-opacity:1;"><g transform="translate(499.85997, 525.192986)"><path style="stroke:none" d="M 491.625 -322.03125 C 491.625 -293.1875 484.523438 -266.863281 470.328125 -243.0625 C 456.140625 -219.257812 437.144531 -200.148438 413.34375 -185.734375 C 389.539062 -171.316406 363.222656 -163.878906 334.390625 -163.421875 L 157.234375 -163.421875 L 157.234375 -67.296875 C 157.234375 -48.523438 152.195312 -33.53125 142.125 -22.3125 C 132.0625 -11.101562 119.585938 -3.554688 104.703125 0.328125 C 89.828125 4.222656 74.835938 4.222656 59.734375 0.328125 C 44.628906 -3.554688 32.039062 -11.101562 21.96875 -22.3125 C 11.894531 -33.53125 6.859375 -48.523438 6.859375 -67.296875 L 6.859375 -410.609375 C 6.859375 -433.953125 14.640625 -451.457031 30.203125 -463.125 C 45.773438 -474.800781 62.710938 -480.640625 81.015625 -480.640625 L 331.640625 -480.640625 C 360.472656 -480.640625 387.019531 -473.65625 411.28125 -459.6875 C 435.539062 -445.726562 454.992188 -426.734375 469.640625 -402.703125 C 484.296875 -378.671875 491.625 -351.78125 491.625 -322.03125 Z M 332.328125 -330.265625 L 157.234375 -330.265625 L 157.234375 -314.46875 L 332.328125 -314.46875 C 338.273438 -314.46875 341.25 -317.21875 341.25 -322.71875 C 340.332031 -327.75 337.359375 -330.265625 332.328125 -330.265625 Z M 332.328125 -330.265625 "/></g></g><g style="fill:#7e4b26;fill-opacity:1;"><g transform="translate(999.719939, 525.192986)"><path style="stroke:none" d="M 165.484375 0 C 145.335938 0 125.191406 -4.117188 105.046875 -12.359375 C 84.910156 -20.597656 67.519531 -31.8125 52.875 -46 C 38.675781 -60.644531 28.257812 -75.519531 21.625 -90.625 C 14.988281 -105.738281 10.523438 -121.765625 8.234375 -138.703125 C 7.773438 -141.898438 7.429688 -145.101562 7.203125 -148.3125 C 6.972656 -151.519531 6.859375 -154.953125 6.859375 -158.609375 L 6.859375 -409.921875 C 6.859375 -428.679688 11.894531 -443.671875 21.96875 -454.890625 C 32.039062 -466.109375 44.515625 -473.660156 59.390625 -477.546875 C 74.265625 -481.441406 89.253906 -481.441406 104.359375 -477.546875 C 119.472656 -473.660156 132.0625 -466.109375 142.125 -454.890625 C 152.195312 -443.671875 157.234375 -428.679688 157.234375 -409.921875 L 157.234375 -158.609375 C 157.234375 -153.117188 159.984375 -150.375 165.484375 -150.375 L 402.359375 -150.375 C 421.128906 -150.375 436.117188 -145.335938 447.328125 -135.265625 C 458.546875 -125.191406 466.097656 -112.71875 469.984375 -97.84375 C 473.878906 -82.96875 473.878906 -67.976562 469.984375 -52.875 C 466.097656 -37.769531 458.546875 -25.179688 447.328125 -15.109375 C 436.117188 -5.035156 421.128906 0 402.359375 0 Z M 165.484375 0 "/></g></g><g style="fill:#7e4b26;fill-opacity:1;"><g transform="translate(1481.041078, 525.192986)"><path style="stroke:none" d=""/></g></g><g style="fill:#7e4b26;fill-opacity:1;"><g transform="translate(1687.027294, 525.192986)"><path style="stroke:none" d="M 492.3125 -322.03125 C 492.3125 -293.1875 485.210938 -267.09375 471.015625 -243.75 C 456.828125 -220.40625 437.832031 -201.75 414.03125 -187.78125 C 390.226562 -173.820312 363.910156 -166.613281 335.078125 -166.15625 L 327.515625 -166.15625 L 327.515625 -165.484375 C 325.234375 -165.484375 323.40625 -164.796875 322.03125 -163.421875 C 317.90625 -160.210938 317.90625 -156.550781 322.03125 -152.4375 C 323.40625 -151.0625 325.234375 -150.375 327.515625 -150.375 L 422.96875 -150.375 C 441.726562 -150.375 456.710938 -145.335938 467.921875 -135.265625 C 479.140625 -125.191406 486.582031 -112.601562 490.25 -97.5 C 493.914062 -82.394531 493.914062 -67.289062 490.25 -52.1875 C 486.582031 -37.082031 479.140625 -24.492188 467.921875 -14.421875 C 456.710938 -4.347656 441.726562 0.6875 422.96875 0.6875 L 327.515625 0.6875 C 306.460938 0.6875 286.207031 -3.429688 266.75 -11.671875 C 247.300781 -19.910156 230.25 -31.351562 215.59375 -46 C 200.03125 -61.5625 189.160156 -79.410156 182.984375 -99.546875 C 176.804688 -119.691406 173.71875 -139.835938 173.71875 -159.984375 C 173.71875 -166.390625 171.082031 -169.476562 165.8125 -169.25 C 160.550781 -169.019531 157.921875 -165.703125 157.921875 -159.296875 L 157.921875 -70.03125 C 157.921875 -51.269531 152.882812 -36.28125 142.8125 -25.0625 C 132.75 -13.84375 120.160156 -6.285156 105.046875 -2.390625 C 89.941406 1.492188 74.835938 1.492188 59.734375 -2.390625 C 44.628906 -6.285156 32.039062 -13.84375 21.96875 -25.0625 C 11.894531 -36.28125 6.859375 -51.269531 6.859375 -70.03125 L 6.859375 -410.609375 C 6.859375 -433.953125 14.640625 -451.457031 30.203125 -463.125 C 45.773438 -474.800781 62.941406 -480.640625 81.703125 -480.640625 L 331.640625 -480.640625 C 360.472656 -480.640625 387.019531 -473.65625 411.28125 -459.6875 C 435.539062 -445.726562 455.109375 -426.734375 469.984375 -402.703125 C 484.867188 -378.671875 492.3125 -351.78125 492.3125 -322.03125 Z M 333.015625 -330.265625 L 157.921875 -330.265625 L 157.921875 -314.46875 L 332.328125 -314.46875 C 334.617188 -314.46875 336.789062 -315.15625 338.84375 -316.53125 C 340.90625 -317.90625 341.707031 -319.96875 341.25 -322.71875 C 341.25 -327.75 338.503906 -330.265625 333.015625 -330.265625 Z M 333.015625 -330.265625 "/></g></g><g style="fill:#7e4b26;fill-opacity:1;"><g transform="translate(2188.947082, 525.192986)"><path style="stroke:none" d="M 164.109375 -165.484375 C 158.609375 -165.484375 155.859375 -162.847656 155.859375 -157.578125 C 155.859375 -152.316406 158.609375 -149.6875 164.109375 -149.6875 L 416.09375 -149.6875 C 434.863281 -149.6875 449.851562 -144.648438 461.0625 -134.578125 C 472.28125 -124.503906 479.71875 -112.03125 483.375 -97.15625 C 487.039062 -82.28125 487.039062 -67.40625 483.375 -52.53125 C 479.71875 -37.65625 472.28125 -25.179688 461.0625 -15.109375 C 449.851562 -5.035156 434.863281 0 416.09375 0 L 163.421875 0 C 159.753906 0 156.429688 -0.113281 153.453125 -0.34375 C 150.484375 -0.570312 147.394531 -0.914062 144.1875 -1.375 C 127.25 -3.664062 110.882812 -8.585938 95.09375 -16.140625 C 79.300781 -23.691406 65.226562 -33.875 52.875 -46.6875 C 37.769531 -61.332031 26.320312 -78.269531 18.53125 -97.5 C 10.75 -116.726562 6.859375 -136.179688 6.859375 -155.859375 C 6.398438 -170.503906 9.257812 -185.378906 15.4375 -200.484375 C 21.625 -215.597656 32.039062 -228.875 46.6875 -240.3125 C 32.5 -250.382812 22.3125 -263.085938 16.125 -278.421875 C 9.945312 -293.753906 6.859375 -308.519531 6.859375 -322.71875 C 6.859375 -342.851562 10.632812 -362.644531 18.1875 -382.09375 C 25.75 -401.550781 37.3125 -418.835938 52.875 -433.953125 C 65.226562 -447.222656 79.300781 -457.519531 95.09375 -464.84375 C 110.882812 -472.164062 127.25 -476.972656 144.1875 -479.265625 C 147.394531 -480.179688 150.484375 -480.640625 153.453125 -480.640625 C 156.429688 -480.640625 159.753906 -480.640625 163.421875 -480.640625 L 416.09375 -480.640625 C 434.863281 -480.640625 449.851562 -475.601562 461.0625 -465.53125 C 472.28125 -455.457031 479.71875 -442.984375 483.375 -428.109375 C 487.039062 -413.234375 487.039062 -398.359375 483.375 -383.484375 C 479.71875 -368.609375 472.28125 -356.132812 461.0625 -346.0625 C 449.851562 -335.988281 434.863281 -330.953125 416.09375 -330.953125 L 164.109375 -330.953125 C 158.609375 -330.953125 155.859375 -328.316406 155.859375 -323.046875 C 155.859375 -317.785156 158.609375 -315.15625 164.109375 -315.15625 L 420.90625 -315.15625 C 422.726562 -315.15625 424.554688 -315.039062 426.390625 -314.8125 C 428.222656 -314.582031 430.285156 -314.238281 432.578125 -313.78125 C 433.492188 -313.320312 434.289062 -313.09375 434.96875 -313.09375 C 435.65625 -313.09375 436.226562 -312.867188 436.6875 -312.421875 C 437.601562 -312.421875 438.175781 -312.304688 438.40625 -312.078125 C 438.632812 -311.847656 438.976562 -311.734375 439.4375 -311.734375 C 441.269531 -310.816406 442.414062 -310.359375 442.875 -310.359375 C 444.707031 -309.441406 445.851562 -308.984375 446.3125 -308.984375 L 449.734375 -306.921875 C 450.191406 -306.460938 450.648438 -306.234375 451.109375 -306.234375 C 451.566406 -306.234375 452.023438 -306.003906 452.484375 -305.546875 L 455.921875 -303.484375 C 456.835938 -302.566406 457.753906 -301.878906 458.671875 -301.421875 C 459.578125 -300.515625 460.488281 -299.832031 461.40625 -299.375 C 461.863281 -298.457031 462.550781 -297.539062 463.46875 -296.625 C 464.382812 -296.164062 465.300781 -295.476562 466.21875 -294.5625 C 466.675781 -293.644531 467.363281 -292.726562 468.28125 -291.8125 L 470.34375 -289.0625 L 472.390625 -286.328125 C 472.847656 -285.410156 473.535156 -284.492188 474.453125 -283.578125 C 475.367188 -281.742188 475.828125 -280.597656 475.828125 -280.140625 L 477.890625 -277.390625 C 478.804688 -275.566406 479.722656 -273.507812 480.640625 -271.21875 C 481.554688 -268.925781 482.242188 -266.632812 482.703125 -264.34375 C 482.703125 -263.882812 482.816406 -263.425781 483.046875 -262.96875 C 483.273438 -262.519531 483.390625 -261.835938 483.390625 -260.921875 C 483.847656 -260.003906 484.078125 -258.859375 484.078125 -257.484375 C 484.523438 -256.566406 484.75 -255.421875 484.75 -254.046875 C 484.75 -253.585938 484.863281 -253.015625 485.09375 -252.328125 C 485.320312 -251.648438 485.4375 -251.082031 485.4375 -250.625 L 485.4375 -247.1875 C 485.4375 -246.726562 485.550781 -246.15625 485.78125 -245.46875 C 486.007812 -244.78125 486.125 -244.207031 486.125 -243.75 L 486.125 -236.890625 C 486.125 -236.429688 486.007812 -235.972656 485.78125 -235.515625 C 485.550781 -235.054688 485.4375 -234.367188 485.4375 -233.453125 L 485.4375 -230.015625 C 485.4375 -229.554688 485.320312 -229.097656 485.09375 -228.640625 C 484.863281 -228.179688 484.75 -227.5 484.75 -226.59375 C 484.75 -225.21875 484.523438 -224.070312 484.078125 -223.15625 C 484.078125 -221.78125 483.847656 -220.632812 483.390625 -219.71875 C 483.390625 -219.257812 483.273438 -218.800781 483.046875 -218.34375 C 482.816406 -217.882812 482.703125 -217.195312 482.703125 -216.28125 C 478.578125 -202.09375 471.019531 -190.078125 460.03125 -180.234375 C 449.050781 -170.398438 434.40625 -165.484375 416.09375 -165.484375 Z M 164.109375 -165.484375 "/></g></g><g style="fill:#7e4b26;fill-opacity:1;"><g transform="translate(2684.000799, 525.192986)"><path style="stroke:none" d="M 166.15625 -329.578125 C 160.664062 -329.578125 157.921875 -326.832031 157.921875 -321.34375 L 157.921875 -158.609375 C 157.921875 -153.117188 160.664062 -150.375 166.15625 -150.375 L 417.46875 -150.375 C 436.238281 -150.375 451.226562 -145.335938 462.4375 -135.265625 C 473.65625 -125.191406 481.207031 -112.71875 485.09375 -97.84375 C 488.988281 -82.96875 488.988281 -67.976562 485.09375 -52.875 C 481.207031 -37.769531 473.65625 -25.179688 462.4375 -15.109375 C 451.226562 -5.035156 436.238281 0 417.46875 0 L 165.484375 0 C 162.273438 0 158.953125 -0.113281 155.515625 -0.34375 C 152.085938 -0.570312 148.769531 -0.914062 145.5625 -1.375 C 128.625 -3.664062 112.601562 -8.128906 97.5 -14.765625 C 82.394531 -21.398438 67.75 -31.8125 53.5625 -46 C 39.363281 -60.644531 28.03125 -78.039062 19.5625 -98.1875 C 11.09375 -118.332031 6.859375 -138.472656 6.859375 -158.609375 L 6.859375 -322.03125 C 6.859375 -342.164062 11.09375 -362.300781 19.5625 -382.4375 C 28.03125 -402.582031 39.363281 -419.753906 53.5625 -433.953125 C 67.75 -448.140625 82.394531 -458.664062 97.5 -465.53125 C 112.601562 -472.394531 128.625 -476.972656 145.5625 -479.265625 C 148.769531 -479.722656 152.085938 -480.066406 155.515625 -480.296875 C 158.953125 -480.523438 162.273438 -480.640625 165.484375 -480.640625 L 417.46875 -480.640625 C 436.238281 -480.640625 451.226562 -475.601562 462.4375 -465.53125 C 473.65625 -455.457031 481.207031 -442.867188 485.09375 -427.765625 C 488.988281 -412.660156 488.988281 -397.554688 485.09375 -382.453125 C 481.207031 -367.347656 473.65625 -354.757812 462.4375 -344.6875 C 451.226562 -334.613281 436.238281 -329.578125 417.46875 -329.578125 Z M 166.15625 -329.578125 "/></g></g><g style="fill:#7e4b26;fill-opacity:1;"><g transform="translate(3179.740907, 525.192986)"><path style="stroke:none" d="M 336.453125 -480.640625 C 340.109375 -480.640625 343.535156 -480.523438 346.734375 -480.296875 C 349.941406 -480.066406 353.148438 -479.722656 356.359375 -479.265625 C 373.296875 -476.972656 389.316406 -472.507812 404.421875 -465.875 C 419.523438 -459.238281 434.171875 -448.597656 448.359375 -433.953125 C 462.554688 -419.753906 473.890625 -402.582031 482.359375 -382.4375 C 490.828125 -362.300781 495.0625 -342.164062 495.0625 -322.03125 L 495.0625 -158.609375 C 495.0625 -138.472656 490.828125 -118.332031 482.359375 -98.1875 C 473.890625 -78.039062 462.554688 -60.875 448.359375 -46.6875 C 434.171875 -32.5 419.523438 -21.972656 404.421875 -15.109375 C 389.316406 -8.242188 373.296875 -3.664062 356.359375 -1.375 C 353.148438 -0.914062 349.941406 -0.570312 346.734375 -0.34375 C 343.535156 -0.113281 340.109375 0 336.453125 0 L 165.484375 0 C 161.816406 0 158.378906 -0.113281 155.171875 -0.34375 C 151.972656 -0.570312 148.769531 -0.914062 145.5625 -1.375 C 128.625 -3.664062 112.601562 -8.242188 97.5 -15.109375 C 82.394531 -21.972656 67.75 -32.5 53.5625 -46.6875 C 39.363281 -60.875 28.03125 -78.039062 19.5625 -98.1875 C 11.09375 -118.332031 6.859375 -138.472656 6.859375 -158.609375 L 6.859375 -322.03125 C 6.859375 -342.164062 11.09375 -362.300781 19.5625 -382.4375 C 28.03125 -402.582031 39.363281 -419.753906 53.5625 -433.953125 C 67.75 -448.597656 82.394531 -459.238281 97.5 -465.875 C 112.601562 -472.507812 128.625 -476.972656 145.5625 -479.265625 C 148.769531 -479.722656 151.972656 -480.066406 155.171875 -480.296875 C 158.378906 -480.523438 161.816406 -480.640625 165.484375 -480.640625 Z M 335.765625 -151.0625 C 341.253906 -151.0625 344 -153.578125 344 -158.609375 L 344 -321.34375 C 344 -327.289062 341.253906 -330.265625 335.765625 -330.265625 L 165.484375 -330.265625 C 160.441406 -330.265625 157.921875 -327.289062 157.921875 -321.34375 L 157.921875 -158.609375 C 157.921875 -153.578125 160.441406 -151.0625 165.484375 -151.0625 Z M 335.765625 -151.0625 "/></g></g><g style="fill:#7e4b26;fill-opacity:1;"><g transform="translate(3685.09366, 525.192986)"><path style="stroke:none" d="M 492.3125 -322.03125 C 492.3125 -293.1875 485.210938 -267.09375 471.015625 -243.75 C 456.828125 -220.40625 437.832031 -201.75 414.03125 -187.78125 C 390.226562 -173.820312 363.910156 -166.613281 335.078125 -166.15625 L 327.515625 -166.15625 L 327.515625 -165.484375 C 325.234375 -165.484375 323.40625 -164.796875 322.03125 -163.421875 C 317.90625 -160.210938 317.90625 -156.550781 322.03125 -152.4375 C 323.40625 -151.0625 325.234375 -150.375 327.515625 -150.375 L 422.96875 -150.375 C 441.726562 -150.375 456.710938 -145.335938 467.921875 -135.265625 C 479.140625 -125.191406 486.582031 -112.601562 490.25 -97.5 C 493.914062 -82.394531 493.914062 -67.289062 490.25 -52.1875 C 486.582031 -37.082031 479.140625 -24.492188 467.921875 -14.421875 C 456.710938 -4.347656 441.726562 0.6875 422.96875 0.6875 L 327.515625 0.6875 C 306.460938 0.6875 286.207031 -3.429688 266.75 -11.671875 C 247.300781 -19.910156 230.25 -31.351562 215.59375 -46 C 200.03125 -61.5625 189.160156 -79.410156 182.984375 -99.546875 C 176.804688 -119.691406 173.71875 -139.835938 173.71875 -159.984375 C 173.71875 -166.390625 171.082031 -169.476562 165.8125 -169.25 C 160.550781 -169.019531 157.921875 -165.703125 157.921875 -159.296875 L 157.921875 -70.03125 C 157.921875 -51.269531 152.882812 -36.28125 142.8125 -25.0625 C 132.75 -13.84375 120.160156 -6.285156 105.046875 -2.390625 C 89.941406 1.492188 74.835938 1.492188 59.734375 -2.390625 C 44.628906 -6.285156 32.039062 -13.84375 21.96875 -25.0625 C 11.894531 -36.28125 6.859375 -51.269531 6.859375 -70.03125 L 6.859375 -410.609375 C 6.859375 -433.953125 14.640625 -451.457031 30.203125 -463.125 C 45.773438 -474.800781 62.941406 -480.640625 81.703125 -480.640625 L 331.640625 -480.640625 C 360.472656 -480.640625 387.019531 -473.65625 411.28125 -459.6875 C 435.539062 -445.726562 455.109375 -426.734375 469.984375 -402.703125 C 484.867188 -378.671875 492.3125 -351.78125 492.3125 -322.03125 Z M 333.015625 -330.265625 L 157.921875 -330.265625 L 157.921875 -314.46875 L 332.328125 -314.46875 C 334.617188 -314.46875 336.789062 -315.15625 338.84375 -316.53125 C 340.90625 -317.90625 341.707031 -319.96875 341.25 -322.71875 C 341.25 -327.75 338.503906 -330.265625 333.015625 -330.265625 Z M 333.015625 -330.265625 "/></g></g><g style="fill:#7e4b26;fill-opacity:1;"><g transform="translate(4187.013448, 525.192986)"><path style="stroke:none" d="M 6.859375 -398.25 C 6.859375 -426.625 14.296875 -447.445312 29.171875 -460.71875 C 44.054688 -474 65.457031 -480.640625 93.375 -480.640625 L 327.515625 -480.640625 C 331.179688 -480.640625 334.613281 -480.523438 337.8125 -480.296875 C 341.019531 -480.066406 344.226562 -479.722656 347.4375 -479.265625 C 364.375 -476.972656 380.507812 -472.394531 395.84375 -465.53125 C 411.175781 -458.664062 425.9375 -448.140625 440.125 -433.953125 C 454.3125 -419.753906 465.523438 -402.582031 473.765625 -382.4375 C 482.003906 -362.300781 486.125 -342.164062 486.125 -322.03125 L 486.125 -158.609375 C 486.125 -138.472656 482.003906 -118.332031 473.765625 -98.1875 C 465.523438 -78.039062 454.3125 -60.644531 440.125 -46 C 425.9375 -31.8125 411.175781 -21.398438 395.84375 -14.765625 C 380.507812 -8.128906 364.375 -3.664062 347.4375 -1.375 C 344.226562 -0.914062 341.019531 -0.570312 337.8125 -0.34375 C 334.613281 -0.113281 331.179688 0 327.515625 0 L 78.96875 0 C 55.15625 0 37.179688 -7.894531 25.046875 -23.6875 C 12.921875 -39.476562 6.859375 -58.359375 6.859375 -80.328125 Z M 157.234375 -329.578125 L 157.234375 -150.375 L 327.515625 -150.375 C 333.015625 -150.375 335.765625 -153.117188 335.765625 -158.609375 L 335.765625 -321.34375 C 335.765625 -326.832031 333.015625 -329.578125 327.515625 -329.578125 Z M 157.234375 -329.578125 "/></g></g><g style="fill:#7e4b26;fill-opacity:1;"><g transform="translate(4683.440381, 525.192986)"><path style="stroke:none" d="M 490.9375 -157.234375 C 490.9375 -127.941406 483.613281 -101.394531 468.96875 -77.59375 C 454.320312 -53.789062 434.863281 -34.90625 410.59375 -20.9375 C 386.332031 -6.976562 359.554688 0 330.265625 0 L 81.015625 0 C 62.253906 0 47.265625 -5.035156 36.046875 -15.109375 C 24.828125 -25.179688 17.269531 -37.65625 13.375 -52.53125 C 9.488281 -67.40625 9.488281 -82.28125 13.375 -97.15625 C 17.269531 -112.03125 24.828125 -124.503906 36.046875 -134.578125 C 47.265625 -144.648438 62.253906 -149.6875 81.015625 -149.6875 L 331.640625 -149.6875 C 336.671875 -149.6875 339.644531 -152.203125 340.5625 -157.234375 C 340.5625 -159.523438 339.53125 -161.359375 337.46875 -162.734375 C 335.414062 -164.109375 333.242188 -164.796875 330.953125 -164.796875 L 162.734375 -165.484375 C 119.703125 -165.484375 83.082031 -181.046875 52.875 -212.171875 C 32.269531 -232.765625 18.535156 -256.335938 11.671875 -282.890625 C 4.804688 -309.441406 4.804688 -336.21875 11.671875 -363.21875 C 18.535156 -390.226562 32.269531 -413.804688 52.875 -433.953125 C 66.144531 -447.222656 80.5625 -457.632812 96.125 -465.1875 C 111.6875 -472.738281 127.9375 -477.429688 144.875 -479.265625 C 148.539062 -480.179688 151.972656 -480.640625 155.171875 -480.640625 C 158.378906 -480.640625 161.816406 -480.640625 165.484375 -480.640625 L 418.84375 -480.640625 C 437.613281 -480.640625 452.601562 -475.601562 463.8125 -465.53125 C 475.03125 -455.457031 482.46875 -442.984375 486.125 -428.109375 C 489.789062 -413.234375 489.789062 -398.359375 486.125 -383.484375 C 482.46875 -368.609375 475.03125 -356.132812 463.8125 -346.0625 C 452.601562 -335.988281 437.613281 -330.953125 418.84375 -330.953125 L 165.484375 -330.953125 C 163.191406 -330.953125 161.359375 -330.265625 159.984375 -328.890625 C 155.859375 -324.773438 155.859375 -321.113281 159.984375 -317.90625 C 161.816406 -316.070312 163.648438 -315.15625 165.484375 -315.15625 L 333.703125 -315.15625 C 362.535156 -315.15625 388.851562 -307.945312 412.65625 -293.53125 C 436.457031 -279.113281 455.453125 -260.003906 469.640625 -236.203125 C 483.835938 -212.398438 490.9375 -186.078125 490.9375 -157.234375 Z M 490.9375 -157.234375 "/></g></g></g></svg>